<svg width="15" height="15" viewBox="0 0 15 15" fill="none" xmlns="http://www.w3.org/2000/svg">
<path d="M6.96013 14.9838C5.14767 14.9838 3.28874 14.2867 2.08044 12.8925C1.66218 13.2178 1.15098 13.4966 0.63977 13.729C0.407403 13.8219 0.128564 13.729 0.0356174 13.4966C-0.0573291 13.2643 0.0356174 12.9854 0.267984 12.8925C0.732716 12.7066 1.15098 12.4742 1.52276 12.1954C0.965082 11.3124 0.63977 10.197 0.63977 8.89577C0.63977 6.43269 1.8016 5.13144 2.87048 5.13144C3.56758 5.13144 4.35763 5.68912 4.35763 7.31568C4.35763 9.49993 3.84642 11.1265 2.73107 12.3348C3.75348 13.5431 5.33357 14.1472 6.91366 14.1472C7.1925 14.1472 7.37839 14.3331 7.37839 14.612C7.37839 14.8908 7.23897 14.9838 6.96013 14.9838ZM2.87048 6.01443C2.40575 6.01443 1.56923 6.85095 1.56923 8.8493C1.56923 9.87171 1.8016 10.7547 2.21986 11.4518C3.05638 10.4759 3.47464 9.08167 3.47464 7.22274C3.47464 6.52564 3.24227 6.01443 2.87048 6.01443ZM14.5353 1.46006C14.1635 0.809432 13.5593 0.3447 12.8622 0.158807C12.6299 0.112333 12.351 0.251753 12.3046 0.484119L11.8863 2.06421L11.1427 0.762959C11.0962 0.670012 10.9568 0.577066 10.8174 0.530593C10.678 0.484119 10.5386 0.530593 10.4456 0.623539C9.93442 0.995325 9.6091 1.50653 9.42321 2.11068L7.47134 9.26756C7.28544 9.96466 7.37839 10.7547 7.75017 11.4053C8.02901 11.9165 8.49375 12.2883 9.00495 12.5672L8.49375 14.4261C8.44727 14.6585 8.58669 14.9373 8.81906 14.9838H8.95848C9.14437 14.9838 9.33026 14.8443 9.42321 14.6585L9.93442 12.846H10.2133C10.678 12.846 11.1427 12.7066 11.6075 12.4742C12.2581 12.1024 12.7228 11.4983 12.9087 10.8012L13.6523 8.10573L14.3958 5.41028C14.4423 5.22439 14.3958 5.0385 14.21 4.89908C14.0705 4.80613 13.8382 4.75966 13.6987 4.8526L11.8398 5.92149L12.1187 4.94555L14.7676 3.45841C14.9071 3.36546 15 3.22604 15 3.08662C14.9535 2.52894 14.8141 1.97126 14.5353 1.46006ZM10.3062 2.38952C10.3527 2.15716 10.4456 1.97126 10.585 1.78537L11.468 3.36546L10.8174 5.73559L9.84147 4.01608L10.3062 2.38952ZM8.54022 10.9406C8.30785 10.5223 8.21491 10.0111 8.35433 9.5464L9.51616 5.27086L10.4921 6.99037L9.84147 9.45345L9.23732 11.6377C8.95848 11.4983 8.72611 11.2659 8.54022 10.9406ZM11.9328 10.5223C11.7933 10.9871 11.5145 11.4053 11.0498 11.6377C10.7709 11.8236 10.4456 11.8701 10.1203 11.8701L10.678 9.91818L12.3975 8.94225L11.9328 10.5223ZM13.1411 6.2468L12.7693 7.68747L11.0498 8.66341L11.4216 7.22274L13.1411 6.2468ZM12.351 3.69077L12.3975 3.50488C12.444 3.45841 12.444 3.36546 12.444 3.31899L13.0016 1.22769C13.2805 1.36711 13.5129 1.64595 13.6987 1.92479C13.8382 2.20363 13.9311 2.48247 13.9311 2.76131L12.351 3.69077Z" fill="#0256B4"/>
</svg>
